<?xml version="1.0" encoding="UTF-8" standalone="no"?>
<!-- Generator: Adobe Illustrator 16.0.0, SVG Export Plug-In . SVG Version: 6.00 Build 0)  -->

<svg
   width="32"
   height="32"
   viewBox="0 0 32 32"
   fill="none"
   version="1.1"
   id="svg6"
   xmlns="http://www.w3.org/2000/svg"
   xmlns:svg="http://www.w3.org/2000/svg">
  <defs
     id="defs10" />
  <path
     d="M 16,31 C 7.72888,31 1,24.2711 1,16 1,7.72889 7.72888,1 16,1 24.2711,1 31,7.72889 31,16 31,24.2711 24.2711,31 16,31 Z M 16,2.53854 C 8.577,2.53854 2.53854,8.58068 2.53854,16 2.53854,23.4193 8.577,29.4615 16,29.4615 23.423,29.4615 29.4615,23.4193 29.4615,16 29.4615,8.58068 23.4223,2.53854 16,2.53854 Z"
     fill="#009fe3"
     stroke="#009fe3"
     stroke-width="0.391487"
     stroke-miterlimit="10"
     id="path2" />
  <g
     aria-label="P"
     id="text271"
     style="font-size:18.6667px;line-height:1.25;fill:#3b3a3a">
    <path
       d="m 21.600921,13.498043 q 0,0.91146 -0.319011,1.786461 -0.319011,0.865887 -0.91146,1.458336 -0.811199,0.802085 -1.813805,1.212242 -0.993492,0.410157 -2.479171,0.410157 h -2.17839 V 22.78582 H 10.399078 V 9.2141809 h 5.760427 q 1.294273,0 2.178389,0.227865 0.893231,0.2187504 1.576826,0.6653661 0.820314,0.537761 1.2487,1.376304 0.437501,0.838543 0.437501,2.014327 z m -3.618496,0.08203 q 0,-0.57422 -0.309896,-0.984377 -0.309897,-0.419271 -0.720054,-0.583334 -0.546876,-0.21875 -1.066408,-0.23698 -0.519532,-0.02734 -1.385419,-0.02734 h -0.601564 v 4.065111 h 1.002606 q 0.893231,0 1.467451,-0.109375 0.583334,-0.109375 0.975262,-0.437501 0.33724,-0.291667 0.483074,-0.692709 0.154948,-0.410157 0.154948,-0.993492 z"
       style="font-weight:bold;-inkscape-font-specification:'sans-serif Bold'"
       id="path1001" />
  </g>
</svg>
